<svg xmlns="http://www.w3.org/2000/svg" viewBox="0 0 800 600" width="800" height="600" role="img" aria-label="Kralın son fermanı">
<defs><linearGradient id="g" x1="0" y1="0" x2="1" y2="1"><stop offset="0" stop-color="#13202b"/><stop offset="1" stop-color="#ff7a45" stop-opacity="0.55"/></linearGradient>
<filter id="blur"><feGaussianBlur stdDeviation="40"/></filter></defs>
<rect width="800" height="600" fill="url(#g)"/>
<g filter="url(#blur)"><circle cx="-248" cy="-178" r="184" fill="#f4d35e" opacity="0.24"/><circle cx="-521" cy="12" r="106" fill="#ff7a45" opacity="0.15"/><circle cx="-396" cy="-162" r="70" fill="#f4d35e" opacity="0.11"/><circle cx="20" cy="-153" r="168" fill="#ff7a45" opacity="0.22"/><circle cx="-8" cy="58" r="174" fill="#f4d35e" opacity="0.23"/></g>
<g><rect x="40" y="320" width="6" height="20" rx="3" fill="#fff" opacity="0.6"/><rect x="55" y="314" width="6" height="32" rx="3" fill="#fff" opacity="0.6"/><rect x="70" y="308" width="6" height="44" rx="3" fill="#fff" opacity="0.6"/><rect x="85" y="302" width="6" height="56" rx="3" fill="#fff" opacity="0.6"/><rect x="100" y="296" width="6" height="68" rx="3" fill="#fff" opacity="0.6"/><rect x="115" y="325" width="6" height="10" rx="3" fill="#fff" opacity="0.6"/><rect x="130" y="319" width="6" height="22" rx="3" fill="#fff" opacity="0.6"/><rect x="145" y="325" width="6" height="10" rx="3" fill="#fff" opacity="0.6"/><rect x="160" y="319" width="6" height="22" rx="3" fill="#fff" opacity="0.6"/><rect x="175" y="313" width="6" height="34" rx="3" fill="#fff" opacity="0.6"/><rect x="190" y="307" width="6" height="46" rx="3" fill="#fff" opacity="0.6"/><rect x="205" y="301" width="6" height="58" rx="3" fill="#fff" opacity="0.6"/><rect x="220" y="295" width="6" height="70" rx="3" fill="#fff" opacity="0.6"/><rect x="235" y="324" width="6" height="12" rx="3" fill="#fff" opacity="0.6"/><rect x="250" y="318" width="6" height="24" rx="3" fill="#fff" opacity="0.6"/><rect x="265" y="312" width="6" height="36" rx="3" fill="#fff" opacity="0.6"/><rect x="280" y="306" width="6" height="48" rx="3" fill="#fff" opacity="0.6"/><rect x="295" y="312" width="6" height="36" rx="3" fill="#fff" opacity="0.6"/><rect x="310" y="306" width="6" height="48" rx="3" fill="#fff" opacity="0.6"/><rect x="325" y="300" width="6" height="60" rx="3" fill="#fff" opacity="0.6"/><rect x="340" y="294" width="6" height="72" rx="3" fill="#fff" opacity="0.6"/><rect x="355" y="323" width="6" height="14" rx="3" fill="#fff" opacity="0.6"/><rect x="370" y="317" width="6" height="26" rx="3" fill="#fff" opacity="0.6"/><rect x="385" y="311" width="6" height="38" rx="3" fill="#fff" opacity="0.6"/><rect x="400" y="305" width="6" height="50" rx="3" fill="#fff" opacity="0.6"/><rect x="415" y="299" width="6" height="62" rx="3" fill="#fff" opacity="0.6"/><rect x="430" y="305" width="6" height="50" rx="3" fill="#fff" opacity="0.6"/><rect x="445" y="299" width="6" height="62" rx="3" fill="#fff" opacity="0.6"/><rect x="460" y="293" width="6" height="74" rx="3" fill="#fff" opacity="0.6"/><rect x="475" y="322" width="6" height="16" rx="3" fill="#fff" opacity="0.6"/><rect x="490" y="316" width="6" height="28" rx="3" fill="#fff" opacity="0.6"/><rect x="505" y="310" width="6" height="40" rx="3" fill="#fff" opacity="0.6"/><rect x="520" y="304" width="6" height="52" rx="3" fill="#fff" opacity="0.6"/><rect x="535" y="298" width="6" height="64" rx="3" fill="#fff" opacity="0.6"/><rect x="550" y="292" width="6" height="76" rx="3" fill="#fff" opacity="0.6"/><rect x="565" y="321" width="6" height="18" rx="3" fill="#fff" opacity="0.6"/><rect x="580" y="292" width="6" height="76" rx="3" fill="#fff" opacity="0.6"/><rect x="595" y="321" width="6" height="18" rx="3" fill="#fff" opacity="0.6"/><rect x="610" y="315" width="6" height="30" rx="3" fill="#fff" opacity="0.6"/><rect x="625" y="309" width="6" height="42" rx="3" fill="#fff" opacity="0.6"/><rect x="640" y="303" width="6" height="54" rx="3" fill="#fff" opacity="0.6"/><rect x="655" y="297" width="6" height="66" rx="3" fill="#fff" opacity="0.6"/><rect x="670" y="326" width="6" height="8" rx="3" fill="#fff" opacity="0.6"/><rect x="685" y="320" width="6" height="20" rx="3" fill="#fff" opacity="0.6"/><rect x="700" y="314" width="6" height="32" rx="3" fill="#fff" opacity="0.6"/><rect x="715" y="308" width="6" height="44" rx="3" fill="#fff" opacity="0.6"/><rect x="730" y="314" width="6" height="32" rx="3" fill="#fff" opacity="0.6"/><rect x="745" y="308" width="6" height="44" rx="3" fill="#fff" opacity="0.6"/></g>
<text x="40" y="62" font-family="ui-sans-serif,system-ui,Segoe UI,Roboto,sans-serif" font-size="18" font-weight="600" fill="#fff" opacity="0.75" letter-spacing="3">FILM</text>
<circle cx="740" cy="540" r="22" fill="#fff" opacity="0.9"/><path d="M733 530l16 10-16 10z" fill="#13202b"/>
</svg>