<svg xmlns="http://www.w3.org/2000/svg" viewBox="0 0 800 600" width="800" height="600" role="img" aria-label="Muhteşem ütü reklamı">
<defs><linearGradient id="g" x1="0" y1="0" x2="1" y2="1"><stop offset="0" stop-color="#2b1a10"/><stop offset="1" stop-color="#ffb443" stop-opacity="0.55"/></linearGradient>
<filter id="blur"><feGaussianBlur stdDeviation="40"/></filter></defs>
<rect width="800" height="600" fill="url(#g)"/>
<g filter="url(#blur)"><circle cx="614" cy="84" r="174" fill="#ff5d73" opacity="0.23"/><circle cx="306" cy="394" r="184" fill="#ffb443" opacity="0.24"/><circle cx="668" cy="217" r="163" fill="#ff5d73" opacity="0.22"/><circle cx="633" cy="68" r="143" fill="#ffb443" opacity="0.19"/><circle cx="469" cy="60" r="143" fill="#ff5d73" opacity="0.19"/></g>
<g><rect x="40" y="305" width="6" height="50" rx="3" fill="#fff" opacity="0.6"/><rect x="55" y="298" width="6" height="64" rx="3" fill="#fff" opacity="0.6"/><rect x="70" y="326" width="6" height="8" rx="3" fill="#fff" opacity="0.6"/><rect x="85" y="319" width="6" height="22" rx="3" fill="#fff" opacity="0.6"/><rect x="100" y="312" width="6" height="36" rx="3" fill="#fff" opacity="0.6"/><rect x="115" y="305" width="6" height="50" rx="3" fill="#fff" opacity="0.6"/><rect x="130" y="298" width="6" height="64" rx="3" fill="#fff" opacity="0.6"/><rect x="145" y="326" width="6" height="8" rx="3" fill="#fff" opacity="0.6"/><rect x="160" y="319" width="6" height="22" rx="3" fill="#fff" opacity="0.6"/><rect x="175" y="312" width="6" height="36" rx="3" fill="#fff" opacity="0.6"/><rect x="190" y="305" width="6" height="50" rx="3" fill="#fff" opacity="0.6"/><rect x="205" y="298" width="6" height="64" rx="3" fill="#fff" opacity="0.6"/><rect x="220" y="326" width="6" height="8" rx="3" fill="#fff" opacity="0.6"/><rect x="235" y="319" width="6" height="22" rx="3" fill="#fff" opacity="0.6"/><rect x="250" y="312" width="6" height="36" rx="3" fill="#fff" opacity="0.6"/><rect x="265" y="305" width="6" height="50" rx="3" fill="#fff" opacity="0.6"/><rect x="280" y="298" width="6" height="64" rx="3" fill="#fff" opacity="0.6"/><rect x="295" y="326" width="6" height="8" rx="3" fill="#fff" opacity="0.6"/><rect x="310" y="319" width="6" height="22" rx="3" fill="#fff" opacity="0.6"/><rect x="325" y="312" width="6" height="36" rx="3" fill="#fff" opacity="0.6"/><rect x="340" y="305" width="6" height="50" rx="3" fill="#fff" opacity="0.6"/><rect x="355" y="298" width="6" height="64" rx="3" fill="#fff" opacity="0.6"/><rect x="370" y="326" width="6" height="8" rx="3" fill="#fff" opacity="0.6"/><rect x="385" y="319" width="6" height="22" rx="3" fill="#fff" opacity="0.6"/><rect x="400" y="312" width="6" height="36" rx="3" fill="#fff" opacity="0.6"/><rect x="415" y="305" width="6" height="50" rx="3" fill="#fff" opacity="0.6"/><rect x="430" y="298" width="6" height="64" rx="3" fill="#fff" opacity="0.6"/><rect x="445" y="326" width="6" height="8" rx="3" fill="#fff" opacity="0.6"/><rect x="460" y="319" width="6" height="22" rx="3" fill="#fff" opacity="0.6"/><rect x="475" y="312" width="6" height="36" rx="3" fill="#fff" opacity="0.6"/><rect x="490" y="305" width="6" height="50" rx="3" fill="#fff" opacity="0.6"/><rect x="505" y="298" width="6" height="64" rx="3" fill="#fff" opacity="0.6"/><rect x="520" y="326" width="6" height="8" rx="3" fill="#fff" opacity="0.6"/><rect x="535" y="319" width="6" height="22" rx="3" fill="#fff" opacity="0.6"/><rect x="550" y="312" width="6" height="36" rx="3" fill="#fff" opacity="0.6"/><rect x="565" y="305" width="6" height="50" rx="3" fill="#fff" opacity="0.6"/><rect x="580" y="298" width="6" height="64" rx="3" fill="#fff" opacity="0.6"/><rect x="595" y="326" width="6" height="8" rx="3" fill="#fff" opacity="0.6"/><rect x="610" y="319" width="6" height="22" rx="3" fill="#fff" opacity="0.6"/><rect x="625" y="312" width="6" height="36" rx="3" fill="#fff" opacity="0.6"/><rect x="640" y="305" width="6" height="50" rx="3" fill="#fff" opacity="0.6"/><rect x="655" y="298" width="6" height="64" rx="3" fill="#fff" opacity="0.6"/><rect x="670" y="326" width="6" height="8" rx="3" fill="#fff" opacity="0.6"/><rect x="685" y="319" width="6" height="22" rx="3" fill="#fff" opacity="0.6"/><rect x="700" y="312" width="6" height="36" rx="3" fill="#fff" opacity="0.6"/><rect x="715" y="305" width="6" height="50" rx="3" fill="#fff" opacity="0.6"/><rect x="730" y="298" width="6" height="64" rx="3" fill="#fff" opacity="0.6"/><rect x="745" y="326" width="6" height="8" rx="3" fill="#fff" opacity="0.6"/></g>
<text x="40" y="62" font-family="ui-sans-serif,system-ui,Segoe UI,Roboto,sans-serif" font-size="18" font-weight="600" fill="#fff" opacity="0.75" letter-spacing="3">REKLAM</text>
<circle cx="740" cy="540" r="22" fill="#fff" opacity="0.9"/><path d="M733 530l16 10-16 10z" fill="#2b1a10"/>
</svg>